<svg width="94" height="94" viewBox="0 0 94 94" fill="none" xmlns="http://www.w3.org/2000/svg">
<path d="M85 0H9C4.02944 0 0 4.02944 0 9V85C0 89.9706 4.02944 94 9 94H85C89.9706 94 94 89.9706 94 85V9C94 4.02944 89.9706 0 85 0Z" fill="#26305D"/>
<path d="M31.9643 68.2857H38.8214V75.1429H31.9643V68.2857ZM31.9643 75.1429H38.8214V82H31.9643V75.1429ZM25.1071 75.1429H31.9643V82H25.1071V75.1429ZM25.1071 68.2857H31.9643V75.1429H25.1071V68.2857ZM25.1071 61.4286H31.9643V68.2857H25.1071V61.4286ZM25.1071 54.5714H31.9643V61.4286H25.1071V54.5714ZM25.1071 47.7143H31.9643V54.5714H25.1071V47.7143ZM25.1071 40.8571H31.9643V47.7143H25.1071V40.8571ZM25.1071 34H31.9643V40.8571H25.1071V34ZM25.1071 27.1429H31.9643V34H25.1071V27.1429ZM31.9643 34H38.8214V40.8571H31.9643V34ZM31.9643 40.8571H38.8214V47.7143H31.9643V40.8571ZM31.9643 47.7143H38.8214V54.5714H31.9643V47.7143ZM31.9643 54.5714H38.8214V61.4286H31.9643V54.5714ZM31.9643 61.4286H38.8214V68.2857H31.9643V61.4286ZM31.9643 27.1429H38.8214V34H31.9643V27.1429ZM31.9643 20.2857H38.8214V27.1429H31.9643V20.2857ZM25.1071 13.4286H31.9643V20.2857H25.1071V13.4286ZM31.9643 13.4286H38.8214V20.2857H31.9643V13.4286ZM25.1071 20.2857H31.9643V27.1429H25.1071V20.2857ZM18.25 13.4286H25.1071V20.2857H18.25V13.4286ZM18.25 20.2857H25.1071V27.1429H18.25V20.2857ZM45.625 13.4286H52.4821V20.2857H45.625V13.4286ZM52.4821 13.4286H59.3393V20.2857H52.4821V13.4286ZM52.4821 20.2857H59.3393V27.1429H52.4821V20.2857ZM52.4821 27.1429H59.3393V34H52.4821V27.1429ZM52.4821 34H59.3393V40.8571H52.4821V34ZM45.625 34H52.4821V40.8571H45.625V34ZM45.625 27.1429H52.4821V34H45.625V27.1429ZM45.625 20.2857H52.4821V27.1429H45.625V20.2857ZM45.625 40.8571H52.4821V47.7143H45.625V40.8571ZM45.625 47.7143H52.4821V54.5714H45.625V47.7143ZM45.625 54.5714H52.4821V61.4286H45.625V54.5714ZM52.4821 47.7143H59.3393V54.5714H52.4821V47.7143ZM52.4821 40.8571H59.3393V47.7143H52.4821V40.8571ZM52.4821 54.5714H59.3393V61.4286H52.4821V54.5714ZM52.4821 61.4286H59.3393V68.2857H52.4821V61.4286ZM45.625 68.2857H52.4821V75.1429H45.625V68.2857ZM45.625 61.4286H52.4821V68.2857H45.625V61.4286ZM45.625 75.1429H52.4821V82H45.625V75.1429ZM52.4821 75.1429H59.3393V82H52.4821V75.1429ZM52.4821 68.2857H59.3393V75.1429H52.4821V68.2857ZM59.3393 75.1429H66.1964V82H59.3393V75.1429ZM66.1964 75.1429H73.0536V82H66.1964V75.1429ZM73.0536 75.1429H79.9107V82H73.0536V75.1429ZM73.0536 68.2857H79.9107V75.1429H73.0536V68.2857ZM66.1964 68.2857H73.0536V75.1429H66.1964V68.2857ZM59.3393 68.2857H66.1964V75.1429H59.3393V68.2857Z" fill="#ACB8EF"/>
</svg>
